# WaveFront *.obj file (generated by Cinema 4D)

v -3.750000 8.937251 -3.750000
v 3.750000 8.937251 3.750000
v -1.406250 14.562250 2.929687
v 3.750000 14.562250 0.351563
v 1.406250 14.562250 2.929687
v -2.812500 7.999750 -2.812500
v -1.406250 14.562250 3.750000
v 1.406250 8.937251 3.750000
v -3.750000 7.999750 -3.750000
v -1.406250 8.937251 3.750000
v 1.406250 14.562250 3.750000
v -2.812500 8.937251 -2.812500
v -2.812500 7.999750 2.812500
v 2.929687 14.562250 -2.460937
v -3.750000 7.999750 3.750000
v -3.750000 8.937251 3.750000
v 2.812500 8.937251 2.812500
v 2.812500 7.999750 -2.109375
v -3.750000 14.562250 0.351562
v 2.812500 7.999750 0.000009
v -2.929687 8.937251 0.351562
v 1.054687 7.999750 2.812500
v -2.929687 14.562250 -2.460937
v -3.750000 8.937251 0.351562
v 2.812500 7.999750 2.812500
v -3.750000 8.937251 -2.460937
v -3.750000 14.562250 -2.460937
v -2.929687 14.562250 0.351562
v -2.929687 8.937251 -2.460937
v 3.750000 7.999750 3.750000
v 3.750000 14.562250 -2.460937
v 1.054687 8.937251 2.812500
v -1.054688 8.937251 2.812500
v 2.812500 7.999750 -2.812500
v -1.054687 9.232249 -2.109375
v -2.812500 8.937251 0.000009
v -2.812500 8.937251 -2.109375
v 2.812500 8.937251 -2.109375
v 2.812500 8.937251 0.000009
v -1.054687 9.232249 -0.000008
v -1.054687 10.169751 -0.000008
v 1.054687 9.232249 -0.000008
v 3.750000 7.999750 -3.750000
v 3.750000 8.937251 -3.750000
v 1.406250 8.937251 2.929687
v 2.929687 8.937251 -2.460937
v 1.054687 10.169751 0.000008
v 3.750000 8.937251 -2.460937
v 1.054688 10.169751 -2.109375
v 3.750000 8.937251 0.351563
v 1.054688 9.232249 -2.109375
v 2.929687 14.562250 0.351563
v -1.054687 10.169751 -2.109375
v -2.812500 7.999750 0.000009
v -1.406250 8.937251 2.929687
v 2.812500 8.937251 -2.812500
v -1.054688 7.999750 2.812500
v -2.812500 8.937251 2.812500
v -2.812500 7.999750 -2.109375
v 2.929687 8.937251 0.351563
# 60 vertices

vn 1.000000 0.000000 0.000000
vn 1.000000 0.000000 0.000000
vn 0.000000 1.000000 0.000000
vn -1.000000 0.000000 0.000000
vn 0.000000 0.000000 1.000000
vn -0.301009 0.953621 0.000000
vn 0.399142 0.916889 0.000000
vn 0.151084 0.982861 0.105630
vn 0.000000 0.000000 -1.000000
vn 0.000000 -1.000000 0.000000
vn 0.000000 -0.978753 -0.205043
vn 0.000000 -0.994788 -0.101964
vn 0.000000 0.000000 -1.000000
vn 0.199571 -0.979883 0.000000
vn -1.000000 0.000000 0.000000
vn 0.301009 -0.953621 0.000000
vn 0.148664 0.988888 0.000000
vn 0.301009 0.953621 0.000000
vn 0.000000 0.000000 -1.000000
vn 0.000010 0.000000 1.000000
vn -0.301009 -0.953621 0.000000
vn -0.000001 0.978753 0.205043
vn 0.000000 0.994788 0.101964
vn -0.151811 0.965346 0.212274
vn -0.148664 0.988888 0.000000
vn 0.399142 -0.916889 0.000000
vn -0.148664 -0.988888 0.000000
vn -0.199571 -0.979883 0.000000
vn -0.305705 -0.946110 -0.106865
vn 0.120756 -0.978216 -0.168850
vn -0.000011 -0.000009 1.000000
vn -0.000022 -0.000018 1.000000
vn -1.000000 0.000000 0.000000
vn 0.000010 0.000000 1.000000
vn -0.000000 0.000000 1.000000
vn 0.000000 1.000000 0.000000
# 36 normals

vt 0.707031 0.823529 0.000000
vt 0.750000 0.823529 0.000000
vt 0.750000 0.882353 0.000000
vt 0.000000 0.000000 0.000000
vt 0.250000 0.389706 0.000000
vt 0.277344 0.389706 0.000000
vt 0.281250 0.411765 0.000000
vt 0.042969 0.823529 0.000000
vt 0.042969 0.470588 0.000000
vt 0.136719 0.470588 0.000000
vt 0.500000 0.882353 0.000000
vt 0.250000 0.882353 0.000000
vt 0.250000 0.823529 0.000000
vt 0.625000 0.941145 0.000000
vt 0.531250 0.941177 0.000000
vt 0.531250 0.882353 0.000000
vt 0.410156 0.367647 0.000000
vt 0.339844 0.367647 0.000000
vt 0.339844 0.235294 0.000000
vt 0.910156 0.941145 0.000000
vt 0.839844 0.941145 0.000000
vt 0.839844 0.882322 0.000000
vt 0.328125 0.051471 0.000000
vt 0.281250 0.058824 0.000000
vt 0.250000 0.000000 0.000000
vt 0.750000 0.470588 0.000000
vt 0.839844 0.411765 0.000000
vt 0.910156 0.411765 0.000000
vt 0.968750 1.000000 0.000000
vt 0.910156 1.000000 0.000000
vt 0.910156 0.941176 0.000000
vt 0.781250 1.000000 0.000000
vt 0.781250 0.941176 0.000000
vt 0.839844 0.941176 0.000000
vt 0.625000 0.941176 0.000000
vt 0.625000 1.000000 0.000000
vt 0.531250 1.000000 0.000000
vt 0.968750 0.102941 0.000000
vt 0.968750 0.058824 0.000000
vt 1.000000 0.000000 0.000000
vt 0.218750 1.000000 0.000000
vt 0.125000 1.000000 0.000000
vt 0.125000 0.941176 0.000000
vt 0.468750 1.000000 0.000000
vt 0.281250 1.000000 0.000000
vt 0.281250 0.941176 0.000000
vt 1.000000 0.823529 0.000000
vt 1.000000 0.882353 0.000000
vt 0.031250 0.941176 0.000000
vt 0.054688 0.941176 0.000000
vt 0.054688 1.000000 0.000000
vt 0.222656 0.823529 0.000000
vt 0.222656 0.470588 0.000000
vt 0.250000 0.470588 0.000000
vt 0.472656 0.823529 0.000000
vt 0.472656 0.470588 0.000000
vt 0.500000 0.470588 0.000000
vt 0.613281 0.411765 0.000000
vt 0.613281 0.058824 0.000000
vt 0.707031 0.058824 0.000000
vt 0.968750 0.411765 0.000000
vt 0.968750 0.235295 0.000000
vt 0.781250 0.941177 0.000000
vt 0.972656 0.823529 0.000000
vt 0.972656 0.470588 0.000000
vt 1.000000 0.470588 0.000000
vt 0.277344 0.470588 0.000000
vt 0.828125 0.823529 0.000000
vt 0.828125 0.470588 0.000000
vt 0.921875 0.470588 0.000000
vt 0.281250 0.367647 0.000000
vt 0.281250 0.235294 0.000000
vt 0.968750 0.882353 0.000000
vt 0.968750 0.941177 0.000000
vt 0.281250 0.941177 0.000000
vt 0.281250 0.882353 0.000000
vt 0.339844 0.882322 0.000000
vt 0.421875 0.000000 0.000000
vt 0.421875 0.051471 0.000000
vt 0.695313 0.941176 0.000000
vt 0.718750 0.941176 0.000000
vt 0.718750 1.000000 0.000000
vt 0.750000 0.000000 0.000000
vt 0.781250 0.058824 0.000000
vt 0.781250 0.102941 0.000000
vt 0.500000 0.213235 0.000000
vt 0.500000 0.389706 0.000000
vt 0.472656 0.389706 0.000000
vt 0.500000 0.823529 0.000000
vt 0.527344 0.470588 0.000000
vt 0.218750 0.882353 0.000000
vt 0.218750 0.941177 0.000000
vt 0.125000 0.941145 0.000000
vt 0.042969 0.411765 0.000000
vt 0.042969 0.058824 0.000000
vt 0.136719 0.058824 0.000000
vt 0.339844 0.058824 0.000000
vt 0.410156 0.058824 0.000000
vt 0.410156 0.235295 0.000000
vt 0.277344 0.213235 0.000000
vt 0.468750 0.235294 0.000000
vt 0.468750 0.367647 0.000000
vt 0.777344 0.470588 0.000000
vt 0.910156 0.102941 0.000000
vt 0.781250 0.235295 0.000000
vt 0.781250 0.411765 0.000000
vt 0.839844 0.102941 0.000000
vt 0.839844 0.235294 0.000000
vt 0.910156 0.235294 0.000000
vt 0.468750 0.941177 0.000000
vt 0.410156 0.941145 0.000000
vt 0.410156 0.882322 0.000000
vt 0.613281 0.823529 0.000000
vt 0.613281 0.470588 0.000000
vt 0.707031 0.470588 0.000000
vt 0.500000 0.000000 0.000000
vt 0.468750 0.058824 0.000000
vt 0.472656 0.213235 0.000000
vt 0.468750 0.411765 0.000000
vt 0.328125 0.823529 0.000000
vt 0.421875 0.823529 0.000000
vt 0.136719 0.823529 0.000000
vt 0.000000 0.882353 0.000000
vt 0.000000 0.823529 0.000000
vt 0.328125 0.470588 0.000000
vt 0.625000 0.882322 0.000000
vt 0.910156 0.882322 0.000000
vt 0.328125 0.000000 0.000000
vt 0.968750 0.941176 0.000000
vt 0.839844 1.000000 0.000000
vt 0.531250 0.941176 0.000000
vt 0.218750 0.941176 0.000000
vt 0.468750 0.941176 0.000000
vt 0.031250 1.000000 0.000000
vt 0.707031 0.411765 0.000000
vt 0.781250 0.882353 0.000000
vt 0.277344 0.823529 0.000000
vt 0.921875 0.823529 0.000000
vt 0.339844 0.941145 0.000000
vt 0.695313 1.000000 0.000000
vt 0.527344 0.823529 0.000000
vt 0.125000 0.882322 0.000000
vt 0.136719 0.411765 0.000000
vt 0.250000 0.213235 0.000000
vt 0.777344 0.823529 0.000000
vt 0.468750 0.882353 0.000000
vt 0.421875 0.470588 0.000000
# 147 texture coordinates

o Cube
usemtl Mat.2
f 43/3/1 44/2/2 48/1/1
f 56/7/3 46/6/3 48/5/3
f 19/10/4 27/9/4 26/8/4
f 16/13/5 15/12/5 30/11/5
f 32/16/1 22/15/1 42/14/1
f 47/19/8 49/18/7 53/17/6
f 49/22/9 51/21/9 35/20/9
f 2/25/3 17/24/3 45/23/3
f 57/28/12 22/27/11 30/26/10
f 33/31/9 57/30/9 13/29/9
f 32/34/9 17/33/13 25/32/9
f 13/37/1 54/36/1 36/35/1
f 9/40/10 6/39/10 59/38/14
f 39/43/4 20/42/4 25/41/4
f 12/46/5 6/45/5 34/44/5
f 43/3/9 9/48/9 1/47/9
f 18/51/4 38/50/15 56/49/4
f 7/54/4 3/53/4 55/52/4
f 4/57/5 52/56/5 60/55/5
f 23/60/1 28/59/1 21/58/1
f 9/40/10 54/62/16 13/61/10
f 18/63/9 51/21/9 49/22/9
f 27/66/9 23/65/13 29/64/9
f 28/67/5 19/54/5 24/13/5
f 3/70/9 5/69/13 45/68/9
f 39/72/18 38/71/17 49/18/7
f 35/20/9 59/74/19 37/73/9
f 41/77/20 36/76/20 54/75/20
f 5/23/3 3/79/3 7/78/3
f 6/82/1 12/81/2 37/80/1
f 18/85/21 34/84/10 43/83/10
f 23/88/3 27/87/3 19/86/3
f 5/90/1 11/57/1 8/89/1
f 40/93/4 57/92/4 33/91/4
f 52/96/4 14/95/4 46/94/4
f 15/66/10 13/61/10 57/28/12
f 41/99/24 33/98/23 32/97/22
f 31/5/3 14/6/3 52/100/3
f 53/17/6 37/102/25 36/101/6
f 14/103/9 31/26/13 48/2/9
f 54/62/16 59/38/14 35/104/26
f 25/106/10 20/105/27 30/26/10
f 42/108/29 51/107/28 18/85/21
f 22/27/11 57/28/12 40/109/30
f 34/84/10 6/39/10 9/40/10
f 43/83/10 30/26/10 20/105/27
f 47/112/31 42/111/32 20/110/31
f 40/109/30 35/104/26 51/107/28
f 31/115/1 4/114/1 50/113/1
f 33/98/23 55/79/3 45/23/3
f 55/79/3 58/117/3 16/116/3
f 16/116/3 58/117/3 21/118/3
f 37/102/25 29/88/3 21/118/3
f 29/88/3 12/119/3 1/57/3
f 12/119/3 56/7/3 44/54/3
f 8/121/5 10/120/5 30/11/5
f 50/113/1 2/89/1 30/11/1
f 38/71/17 39/72/18 60/100/3
f 60/100/3 17/24/3 2/25/3
f 21/118/3 58/117/3 36/101/6
f 29/88/3 37/102/25 12/119/3
f 46/6/3 56/7/3 38/71/17
f 60/100/3 39/72/18 17/24/3
f 45/23/3 17/24/3 32/97/22
f 55/79/3 33/98/23 58/117/3
f 15/12/4 16/13/15 24/122/4
f 26/8/4 1/124/4 9/123/4
f 7/125/5 10/120/5 8/121/5
f 48/1/1 50/113/1 30/11/1
f 44/54/3 56/7/3 48/5/3
f 24/122/4 19/10/4 26/8/4
f 10/120/5 16/13/5 30/11/5
f 47/126/1 32/16/1 42/14/1
f 41/99/24 47/19/8 53/17/6
f 53/127/9 49/22/9 35/20/9
f 8/128/3 2/25/3 45/23/3
f 15/66/10 57/28/12 30/26/10
f 58/129/9 33/31/9 13/29/9
f 22/130/9 32/34/9 25/32/9
f 58/131/1 13/37/1 36/35/1
f 54/62/16 9/40/10 59/38/14
f 17/132/4 39/43/4 25/41/4
f 56/133/5 12/46/5 34/44/5
f 44/2/19 43/3/9 1/47/9
f 34/134/33 18/51/4 56/49/4
f 10/13/4 7/54/4 55/52/4
f 50/89/5 4/57/5 60/55/5
f 29/135/1 23/60/1 21/58/1
f 15/66/10 9/40/10 13/61/10
f 38/136/9 18/63/9 49/22/9
f 26/47/9 27/66/9 29/64/9
f 21/137/5 28/67/5 24/13/5
f 55/138/9 3/70/9 45/68/9
f 47/19/8 39/72/18 49/18/7
f 53/127/9 35/20/9 37/73/9
f 40/139/34 41/77/20 54/75/20
f 11/128/3 5/23/3 7/78/3
f 59/140/1 6/82/1 37/80/1
f 20/105/27 18/85/21 43/83/10
f 28/118/3 23/88/3 19/86/3
f 45/141/1 5/90/1 8/89/1
f 41/142/4 40/93/4 33/91/4
f 60/143/4 52/96/4 46/94/4
f 47/19/8 41/99/24 32/97/22
f 4/144/3 31/5/3 52/100/3
f 41/99/24 53/17/6 36/101/6
f 46/145/9 14/103/9 48/2/9
f 40/109/30 54/62/16 35/104/26
f 22/27/11 25/106/10 30/26/10
f 20/105/27 42/108/29 18/85/21
f 42/108/29 22/27/11 40/109/30
f 43/83/10 34/84/10 9/40/10
f 39/146/35 47/112/31 20/110/31
f 42/108/29 40/109/30 51/107/28
f 48/1/1 31/115/1 50/113/1
f 32/97/22 33/98/23 45/23/3
f 10/78/3 55/79/3 16/116/3
f 24/86/3 16/116/3 21/118/3
f 36/101/6 37/102/25 21/118/3
f 26/87/3 29/88/3 1/57/3
f 1/57/3 12/119/3 44/54/3
f 2/89/5 8/121/5 30/11/5
f 46/6/3 38/71/17 60/100/3
f 50/144/36 60/100/3 2/25/3
f 9/123/4 15/12/4 24/122/4
f 24/122/4 26/8/4 9/123/4
f 11/147/5 7/125/5 8/121/5
f 43/3/1 48/1/1 30/11/1

