# WaveFront *.obj file (generated by Cinema 4D)

v -3.529412 8.000000 0.941176
v -3.529412 8.000000 -0.941176
v -3.529412 14.117647 0.941176
v -3.529412 14.117647 -0.941176
v -3.058824 14.117647 0.941176
v -3.058824 14.117647 -0.941176
v -3.058824 15.058824 0.941176
v -3.058824 15.058824 -0.941176
v -2.588235 15.058824 0.941176
v -2.588235 15.058824 -0.941176
v -2.588235 15.529412 0.941176
v -2.588235 15.529412 -0.941176
v -2.117647 11.294118 0.941176
v -2.117647 11.294118 0.706500
v -2.117647 12.235294 0.941176
v -2.117647 12.235294 0.706500
v -2.117647 12.705882 0.941176
v -2.117647 12.705882 0.706500
v -2.117647 13.176471 0.941176
v -2.117647 13.176471 0.706500
v -1.647059 12.235294 0.941176
v -1.647059 12.235294 0.706500
v -1.647059 12.705882 0.941176
v -1.647059 12.705882 0.706500
v -1.647059 15.529412 0.941176
v -1.647059 15.529412 -0.941176
v -1.647059 16.000000 0.941176
v -1.647059 16.000000 -0.941176
v -1.176471 11.294118 0.941176
v -1.176471 11.294118 0.706500
v -1.176471 12.235294 0.941176
v -1.176471 12.235294 0.706500
v -1.176471 12.705882 0.941176
v -1.176471 12.705882 0.706500
v -1.176471 13.647059 0.941176
v -1.176471 13.647059 0.706500
v 0.235294 11.764706 0.941176
v 0.235294 11.764706 0.706500
v 0.235294 13.176471 0.941176
v 0.235294 13.176471 0.706500
v 0.705882 11.294118 0.941176
v 0.705882 11.294118 0.706500
v 0.705882 11.764706 0.941176
v 0.705882 11.764706 0.706500
v 0.705882 13.176471 0.941176
v 0.705882 13.176471 0.706500
v 0.705882 13.647059 0.941176
v 0.705882 13.647059 0.706500
v 1.647059 11.294118 0.941176
v 1.647059 11.294118 0.706500
v 1.647059 12.235294 0.941176
v 1.647059 12.235294 0.706500
v 1.647059 12.705882 0.941176
v 1.647059 12.705882 0.706500
v 1.647059 13.176471 0.941176
v 1.647059 13.176471 0.706500
v 2.588235 12.235294 0.941176
v 2.588235 12.235294 0.706500
v 2.588235 13.647059 0.941176
v 2.588235 13.647059 0.706500
v -2.588235 11.294118 0.941176
v -2.588235 13.647059 0.706500
v -2.588235 13.647059 0.941176
v -2.588235 11.294118 0.706500
v -1.647059 11.294118 0.941176
v -1.647059 11.294118 0.706500
v 3.529412 14.117647 -0.941176
v 3.529412 14.117647 0.941176
v 3.529412 8.000000 -0.941176
v 3.529412 8.000000 0.941176
v -1.647059 13.176471 0.941176
v -1.647059 13.176471 0.706500
v -0.705882 11.294118 0.941176
v -0.705882 11.294118 0.706500
v -0.705882 11.764706 0.941176
v -0.705882 11.764706 0.706500
v -0.705882 13.176471 0.941176
v -0.705882 13.176471 0.706500
v -0.705882 13.647059 0.941176
v -0.705882 13.647059 0.706500
v -0.235294 11.764706 0.941176
v -0.235294 11.764706 0.706500
v -0.235294 13.176471 0.941176
v -0.235294 13.176471 0.706500
v 1.176471 11.294118 0.941176
v 1.176471 11.294118 0.706500
v 1.176471 13.647059 0.941176
v 1.176471 13.647059 0.706500
v 1.647059 15.529412 0.941176
v 1.647059 15.529412 -0.941176
v 1.647059 16.000000 0.941176
v 1.647059 16.000000 -0.941176
v 2.117647 12.705882 0.941176
v 2.117647 12.705882 0.706500
v 2.117647 13.176471 0.941176
v 2.117647 13.176471 0.706500
v 2.588235 15.058824 0.941176
v 2.588235 15.058824 -0.941176
v 2.588235 15.529412 0.941176
v 2.588235 15.529412 -0.941176
v 3.058824 14.117647 0.941176
v 3.058824 14.117647 -0.941176
v 3.058824 15.058824 0.941176
v 3.058824 15.058824 -0.941176
# 104 vertices

vn 0.000000 0.000000 1.000000
vn 0.000000 0.000000 1.000000
vn 0.000000 0.000000 -1.000000
vn 0.000000 1.000000 0.000000
vn -1.000000 0.000000 0.000000
vn 0.000000 -1.000000 0.000000
vn 1.000000 0.000000 0.000000
vn 0.000000 1.000000 0.000000
vn 1.000000 0.000000 0.000000
vn 0.000000 0.000000 1.000000
# 10 normals

vt 0.125000 1.000000 0.000000
vt 0.125000 0.409091 0.000000
vt 0.150000 0.409091 0.000000
vt 0.000000 0.000000 0.000000
vt 0.275000 0.681818 0.000000
vt 0.325000 0.636364 0.000000
vt 0.350000 0.681818 0.000000
vt 0.400000 0.590909 0.000000
vt 0.400000 0.681818 0.000000
vt 0.375000 0.681818 0.000000
vt 0.200000 0.590909 0.000000
vt 0.225000 0.545455 0.000000
vt 0.225000 0.590909 0.000000
vt 0.950000 0.318182 0.000000
vt 0.675000 0.318182 0.000000
vt 0.675000 0.272727 0.000000
vt 0.400000 0.045455 0.000000
vt 0.375000 0.045455 0.000000
vt 0.375000 0.000000 0.000000
vt 0.250000 0.590909 0.000000
vt 0.250000 0.681818 0.000000
vt 0.400000 0.545455 0.000000
vt 0.400000 0.500000 0.000000
vt 0.425000 0.500000 0.000000
vt 0.200000 0.545455 0.000000
vt 0.200000 0.500000 0.000000
vt 0.225000 0.500000 0.000000
vt 0.100000 1.000000 0.000000
vt 0.000000 1.000000 0.000000
vt 0.000000 0.409091 0.000000
vt 0.150000 0.045455 0.000000
vt 0.150000 0.227273 0.000000
vt 0.125000 0.227273 0.000000
vt 0.100000 0.409091 0.000000
vt 0.000000 0.318182 0.000000
vt 0.250000 0.545455 0.000000
vt 0.100000 0.318182 0.000000
vt 0.000000 0.272727 0.000000
vt 0.425000 0.000000 0.000000
vt 0.425000 0.045455 0.000000
vt 0.125000 0.681818 0.000000
vt 0.100000 0.681818 0.000000
vt 0.100000 0.590909 0.000000
vt 0.350000 0.045455 0.000000
vt 0.275000 0.045455 0.000000
vt 0.275000 0.000000 0.000000
vt 0.125000 0.545455 0.000000
vt 0.100000 0.545455 0.000000
vt 0.100000 0.500000 0.000000
vt 0.350000 0.000000 0.000000
vt 0.325000 0.045455 0.000000
vt 0.125000 0.590909 0.000000
vt 0.250000 0.045455 0.000000
vt 0.225000 0.045455 0.000000
vt 0.225000 0.000000 0.000000
vt 0.100000 0.272727 0.000000
vt 0.000000 0.227273 0.000000
vt 0.300000 0.000000 0.000000
vt 0.300000 0.045455 0.000000
vt 0.200000 0.045455 0.000000
vt 0.175000 0.045455 0.000000
vt 0.175000 0.000000 0.000000
vt 0.100000 0.454545 0.000000
vt 0.125000 0.636364 0.000000
vt 0.100000 0.636364 0.000000
vt 0.825000 0.000000 0.000000
vt 0.825000 0.045455 0.000000
vt 0.750000 0.045455 0.000000
vt 0.250000 0.000000 0.000000
vt 0.125000 0.500000 0.000000
vt 0.600000 0.000000 0.000000
vt 0.625000 0.000000 0.000000
vt 0.625000 0.045455 0.000000
vt 0.450000 0.000000 0.000000
vt 0.450000 0.045455 0.000000
vt 0.725000 0.000000 0.000000
vt 0.725000 0.045455 0.000000
vt 0.650000 0.045455 0.000000
vt 0.525000 0.681818 0.000000
vt 0.500000 0.681818 0.000000
vt 0.500000 0.454545 0.000000
vt 0.400000 0.227273 0.000000
vt 0.225000 0.227273 0.000000
vt 0.500000 0.590909 0.000000
vt 0.700000 0.000000 0.000000
vt 0.525000 0.545455 0.000000
vt 0.500000 0.545455 0.000000
vt 0.500000 0.500000 0.000000
vt 0.450000 0.227273 0.000000
vt 0.500000 0.636364 0.000000
vt 0.550000 0.045455 0.000000
vt 0.525000 0.500000 0.000000
vt 0.175000 0.227273 0.000000
vt 0.525000 0.636364 0.000000
vt 0.650000 0.000000 0.000000
vt 0.675000 0.000000 0.000000
vt 0.675000 0.045455 0.000000
vt 0.475000 0.045455 0.000000
vt 0.475000 0.227273 0.000000
vt 0.625000 0.272727 0.000000
vt 0.525000 0.272727 0.000000
vt 0.525000 0.227273 0.000000
vt 0.800000 0.000000 0.000000
vt 0.800000 0.045455 0.000000
vt 0.775000 0.045455 0.000000
vt 0.625000 0.318182 0.000000
vt 0.525000 0.318182 0.000000
vt 0.500000 0.045455 0.000000
vt 0.875000 0.045455 0.000000
vt 0.875000 0.227273 0.000000
vt 0.625000 0.409091 0.000000
vt 0.525000 0.409091 0.000000
vt 0.500000 0.227273 0.000000
vt 0.625000 1.000000 0.000000
vt 0.525000 1.000000 0.000000
vt 0.600000 0.045455 0.000000
vt 0.575000 0.045455 0.000000
vt 0.400000 0.000000 0.000000
vt 0.225000 0.681818 0.000000
vt 0.425000 0.545455 0.000000
vt 0.125000 0.045455 0.000000
vt 0.250000 0.454545 0.000000
vt 0.325000 0.000000 0.000000
vt 0.100000 0.227273 0.000000
vt 0.200000 0.000000 0.000000
vt 0.125000 0.454545 0.000000
vt 0.750000 0.000000 0.000000
vt 0.525000 0.454545 0.000000
vt 0.525000 0.590909 0.000000
vt 0.700000 0.045455 0.000000
vt 0.550000 0.000000 0.000000
vt 0.625000 0.227273 0.000000
vt 0.775000 0.000000 0.000000
vt 0.575000 0.000000 0.000000
vt 0.175000 0.318182 0.000000
vt 0.175000 0.454545 0.000000
vt 0.175000 0.272727 0.000000
vt 0.225000 0.272727 0.000000
vt 0.400000 0.272727 0.000000
vt 0.450000 0.272727 0.000000
vt 0.450000 0.318182 0.000000
vt 0.475000 0.409091 0.000000
vt 0.450000 0.454545 0.000000
vt 0.500000 1.000000 0.000000
vt 0.450000 0.590909 0.000000
vt 0.275000 0.636364 0.000000
vt 0.275000 0.500000 0.000000
vt 0.175000 0.681818 0.000000
vt 0.200000 0.681818 0.000000
vt 0.275000 0.454545 0.000000
vt 0.350000 0.454545 0.000000
vt 0.375000 0.454545 0.000000
vt 0.350000 0.500000 0.000000
vt 0.350000 0.636364 0.000000
vt 0.300000 0.500000 0.000000
vt 0.300000 0.636364 0.000000
vt 0.325000 0.500000 0.000000
vt 0.900000 0.272727 0.000000
vt 0.725000 0.272727 0.000000
vt 0.725000 0.227273 0.000000
vt 0.975000 0.409091 0.000000
vt 1.000000 1.000000 0.000000
vt 0.650000 0.409091 0.000000
vt 0.650000 0.318182 0.000000
vt 0.150000 0.318182 0.000000
vt 0.475000 0.318182 0.000000
vt 0.500000 0.409091 0.000000
vt 0.900000 0.227273 0.000000
vt 0.950000 0.272727 0.000000
vt 0.975000 0.318182 0.000000
vt 1.000000 0.409091 0.000000
# 171 texture coordinates

o tombstone
usemtl tombstone
f 5/3/1 3/2/1 1/1/1
f 42/7/1 38/6/1 74/5/1
f 86/10/1 50/9/2 52/8/1
f 22/13/1 24/12/1 16/11/1
f 100/16/3 98/15/3 10/14/3
f 86/19/4 85/18/4 49/17/4
f 30/21/1 32/20/1 22/13/1
f 95/24/1 55/23/1 53/22/1
f 71/27/1 19/26/1 17/25/1
f 31/20/1 23/12/1 21/13/1
f 4/30/5 2/29/5 1/28/5
f 3/33/4 5/32/4 6/31/4
f 8/35/5 6/30/5 5/34/5
f 72/27/1 24/12/1 34/36/1
f 12/38/5 10/35/5 9/37/5
f 55/17/4 95/40/4 96/39/4
f 16/43/5 14/42/5 13/41/5
f 74/46/4 73/45/4 41/44/4
f 20/49/5 18/48/5 17/47/5
f 39/51/4 45/44/4 46/50/4
f 24/48/5 22/43/5 21/52/5
f 66/55/4 65/54/4 29/53/4
f 28/57/5 26/38/5 25/56/5
f 77/45/4 83/59/4 84/58/4
f 32/43/5 30/42/5 29/41/5
f 64/62/4 61/61/4 13/60/4
f 36/63/5 34/48/5 33/47/5
f 19/60/4 71/54/4 72/55/4
f 40/49/5 38/65/5 37/64/5
f 88/68/6 60/67/6 59/66/6
f 44/65/5 42/42/5 41/41/5
f 23/54/4 33/53/4 34/69/4
f 48/63/5 46/49/5 45/70/5
f 32/73/6 31/72/6 21/71/6
f 52/43/5 50/42/5 49/41/5
f 51/17/4 57/75/4 58/74/4
f 56/49/5 54/48/5 53/47/5
f 80/78/6 48/77/6 47/76/6
f 60/63/5 58/43/5 57/52/5
f 15/60/4 21/54/4 22/55/4
f 63/81/7 61/80/7 64/79/7
f 27/83/4 91/82/4 92/17/4
f 21/84/7 65/80/7 66/79/7
f 44/77/6 43/76/6 37/85/6
f 71/88/7 23/87/7 24/86/7
f 89/82/4 99/89/4 100/75/4
f 75/90/7 73/80/7 74/79/7
f 62/91/6 36/73/6 35/72/6
f 79/81/7 77/88/7 78/92/7
f 11/93/4 25/83/4 26/54/4
f 83/88/7 81/90/7 82/94/7
f 82/97/6 81/96/6 75/95/6
f 87/81/7 85/80/7 86/79/7
f 97/89/4 103/99/4 104/98/4
f 91/102/7 89/101/7 90/100/7
f 54/105/6 94/104/6 93/103/6
f 95/88/7 93/87/7 94/86/7
f 7/32/4 9/93/4 10/61/4
f 99/101/7 97/107/7 98/106/7
f 69/110/6 70/109/6 1/108/6
f 103/107/7 101/112/7 102/111/7
f 101/99/4 68/113/4 67/108/4
f 68/112/7 70/115/7 69/114/7
f 18/117/6 24/116/6 23/71/6
f 50/118/8 86/19/4 49/17/4
f 66/119/1 30/21/1 22/13/1
f 93/120/1 95/24/1 53/22/1
f 23/12/1 71/27/1 17/25/1
f 3/34/5 4/30/5 1/28/5
f 4/121/4 3/33/4 6/31/4
f 7/37/5 8/35/5 5/34/5
f 36/122/1 72/27/1 34/36/1
f 11/56/5 12/38/5 9/37/5
f 56/118/4 55/17/4 96/39/4
f 15/52/5 16/43/5 13/41/5
f 42/50/8 74/46/4 41/44/4
f 19/70/5 20/49/5 17/47/5
f 40/123/4 39/51/4 46/50/4
f 23/47/5 24/48/5 21/52/5
f 30/69/8 66/55/4 29/53/4
f 27/124/5 28/57/5 25/56/5
f 78/46/4 77/45/4 84/58/4
f 31/52/5 32/43/5 29/41/5
f 14/125/8 64/62/4 13/60/4
f 35/126/5 36/63/5 33/47/5
f 20/125/4 19/60/4 72/55/4
f 39/70/5 40/49/5 37/64/5
f 87/127/6 88/68/6 59/66/6
f 43/64/5 44/65/5 41/41/5
f 24/55/4 23/54/4 34/69/4
f 47/126/5 48/63/5 45/70/5
f 22/116/6 32/73/6 21/71/6
f 51/52/5 52/43/5 49/41/5
f 52/118/4 51/17/4 58/74/4
f 55/70/5 56/49/5 53/47/5
f 79/95/6 80/78/6 47/76/6
f 59/126/5 60/63/5 57/52/5
f 16/125/4 15/60/4 22/55/4
f 62/128/9 63/81/7 64/79/7
f 28/54/4 27/83/4 92/17/4
f 22/129/9 21/84/7 66/79/7
f 38/130/6 44/77/6 37/85/6
f 72/92/9 71/88/7 24/86/7
f 90/17/4 89/82/4 100/75/4
f 76/94/9 75/90/7 74/79/7
f 63/131/6 62/91/6 35/72/6
f 80/128/9 79/81/7 78/92/7
f 12/61/4 11/93/4 26/54/4
f 84/92/9 83/88/7 82/94/7
f 76/78/6 82/97/6 75/95/6
f 88/128/9 87/81/7 86/79/7
f 98/75/4 97/89/4 104/98/4
f 92/132/9 91/102/7 90/100/7
f 53/133/6 54/105/6 93/103/6
f 96/92/9 95/88/7 94/86/7
f 8/31/4 7/32/4 10/61/4
f 100/100/9 99/101/7 98/106/7
f 2/113/6 69/110/6 1/108/6
f 104/106/9 103/107/7 102/111/7
f 102/98/4 101/99/4 67/108/4
f 67/111/9 68/112/7 69/114/7
f 17/134/6 18/117/6 23/71/6
f 5/3/1 63/136/1 9/135/1
f 25/138/1 11/137/1 9/135/1
f 25/138/1 89/139/1 91/82/1
f 97/141/1 99/140/1 89/139/1
f 97/141/1 59/143/1 101/142/1
f 101/142/1 57/145/1 70/144/1
f 70/144/1 41/7/1 73/5/1
f 29/21/1 65/119/1 1/1/1
f 29/21/1 73/5/1 75/146/1
f 33/36/1 23/12/1 31/20/1
f 35/122/1 33/36/1 77/147/1
f 25/138/1 9/135/1 63/136/1
f 5/3/1 1/1/1 61/148/1
f 13/149/1 61/148/1 1/1/1
f 15/11/1 13/149/1 65/119/1
f 89/139/1 25/138/1 79/150/1
f 87/152/1 89/139/1 47/151/1
f 37/6/1 43/154/1 45/153/1
f 41/7/1 70/144/1 85/10/1
f 83/155/1 77/147/1 75/146/1
f 70/144/1 49/9/1 85/10/1
f 49/9/1 70/144/1 57/145/1
f 101/142/1 59/143/1 57/145/1
f 97/141/1 89/139/1 87/152/1
f 43/154/1 85/10/1 87/152/1
f 33/36/1 31/20/1 75/146/1
f 35/122/1 79/150/1 25/138/1
f 65/119/1 13/149/1 1/1/1
f 73/5/1 29/21/1 1/1/1
f 82/156/1 76/146/1 74/5/1
f 38/6/1 84/155/1 82/156/1
f 84/155/1 80/150/1 78/147/1
f 48/151/1 80/150/1 46/153/1
f 46/153/1 80/150/1 40/157/1
f 40/157/1 84/155/1 38/6/1
f 44/154/1 38/6/1 42/7/1
f 40/157/1 80/150/1 84/155/1
f 38/6/1 82/156/1 74/5/1
f 86/10/1 52/8/1 54/22/1
f 96/24/1 60/143/1 88/152/1
f 94/120/1 58/145/1 60/143/1
f 94/120/1 54/22/1 52/8/1
f 54/22/1 56/23/1 88/152/1
f 16/11/1 64/148/1 14/149/1
f 18/25/1 62/136/1 64/148/1
f 62/136/1 20/26/1 36/122/1
f 72/27/1 36/122/1 20/26/1
f 20/26/1 62/136/1 18/25/1
f 24/12/1 18/25/1 16/11/1
f 92/160/3 90/159/3 26/158/3
f 26/158/3 90/159/3 10/14/3
f 10/14/3 98/15/3 6/161/3
f 6/161/3 102/163/3 2/162/3
f 67/111/3 69/114/3 2/162/3
f 102/163/3 67/111/3 2/162/3
f 104/164/3 102/163/3 6/161/3
f 7/165/10 5/3/1 9/135/1
f 27/83/10 25/138/1 91/82/1
f 103/166/1 97/141/1 101/142/1
f 68/167/1 101/142/1 70/144/1
f 1/1/1 70/144/1 73/5/1
f 31/20/1 29/21/1 75/146/1
f 79/150/1 35/122/1 77/147/1
f 35/122/1 25/138/1 63/136/1
f 63/136/1 5/3/1 61/148/1
f 21/13/1 15/11/1 65/119/1
f 47/151/1 89/139/1 79/150/1
f 45/153/1 87/152/1 47/151/1
f 39/157/10 37/6/1 45/153/1
f 43/154/1 41/7/1 85/10/1
f 81/156/1 83/155/1 75/146/1
f 51/8/10 49/9/1 57/145/1
f 59/143/1 97/141/1 87/152/1
f 45/153/1 43/154/1 87/152/1
f 77/147/1 33/36/1 75/146/1
f 88/152/1 86/10/1 54/22/1
f 56/23/1 96/24/1 88/152/1
f 96/24/1 94/120/1 60/143/1
f 58/145/1 94/120/1 52/8/1
f 16/11/1 18/25/1 64/148/1
f 28/168/3 92/160/3 26/158/3
f 12/169/3 26/158/3 10/14/3
f 8/170/3 10/14/3 6/161/3
f 4/171/3 6/161/3 2/162/3
f 98/15/3 104/164/3 6/161/3
f 90/159/3 100/16/3 10/14/3

