# Blender v2.93.1 OBJ File: 'HarryPotterShield.blend'
# www.blender.org
mtllib Ravenclaw_Shield.mtl
o Ravenclaw_Shield_geo_Plane.001
v 2.423242 -2.093897 0.300000
v 0.664482 2.991396 0.300000
v 2.781993 0.782195 0.300000
v 1.211621 -3.552426 0.300000
v 1.346888 3.493614 0.300000
v 1.817432 -2.923141 0.300000
v 2.020332 3.540663 0.300000
v 2.052978 0.782195 0.300000
v 0.673444 3.658287 0.300000
v 0.605811 -3.899414 0.300000
v 2.843745 -0.655851 0.300000
v 2.040567 -0.655851 0.300000
v 2.673192 2.208478 0.300000
v 1.969607 2.208478 0.300000
v 2.715830 -1.445448 0.300000
v 1.909842 -1.445448 0.300000
v 2.513786 3.696736 0.300000
v 2.680230 3.599848 0.300000
v 1.937499 3.000974 0.300000
v 1.330799 2.914769 0.300000
v 0.608387 -3.055740 0.300000
v 1.179317 -2.607913 0.300000
v 1.585654 -2.084994 0.300000
v 1.817432 -2.923141 -0.000000
v 2.423242 -2.093897 -0.000000
v 0.673444 3.658287 0.000000
v 2.843745 -0.655851 0.000000
v 2.781993 0.782195 0.000000
v 0.605811 -3.899414 0.000000
v 1.211621 -3.552426 -0.000000
v 2.020332 3.540663 0.000000
v 1.346888 3.493614 0.000000
v 2.513786 3.696736 0.000000
v 2.715830 -1.445448 -0.000000
v 2.673192 2.208478 0.000000
v 2.680230 3.599848 0.000000
v 0.623549 2.107500 0.500000
v 0.631096 2.851081 0.500000
v 0.607490 0.752878 0.500000
v 1.949829 0.752878 0.500000
v 1.214980 0.752878 0.500000
v 1.182863 -0.612915 0.500000
v 1.938041 -0.612915 0.500000
v 0.591431 -0.612915 0.500000
v 1.166804 -1.362840 0.500000
v 1.813885 -1.362840 0.500000
v 0.583402 -1.362840 0.500000
v 1.247098 2.107500 0.500000
v 1.870647 2.107500 0.500000
v 1.120064 -2.466899 0.500000
v 0.577820 -2.892226 0.500000
v 1.840152 2.860178 0.500000
v 1.263935 2.778304 0.500000
v 1.505985 -1.970253 0.500000
v -2.423242 -2.093897 0.300000
v -0.664482 2.991396 0.300000
v -0.000000 -4.211116 0.300000
v 0.000000 3.764148 0.300000
v -2.781993 0.782195 0.300000
v -1.211621 -3.552426 0.300000
v -1.346888 3.493614 0.300000
v -1.817432 -2.923141 0.300000
v -2.020332 3.540663 0.300000
v -2.052978 0.782195 0.300000
v -0.673444 3.658287 0.300000
v -0.605811 -3.899414 0.300000
v -2.843745 -0.655851 0.300000
v -2.040567 -0.655851 0.300000
v -2.673192 2.208478 0.300000
v -1.969607 2.208478 0.300000
v -2.715830 -1.445448 0.300000
v -1.909842 -1.445448 0.300000
v -2.513786 3.696736 0.300000
v -2.680230 3.599848 0.300000
v -1.937499 3.000974 0.300000
v 0.000000 3.211697 0.300000
v -1.330799 2.914769 0.300000
v -0.608387 -3.055740 0.300000
v -0.000000 -3.408782 0.300000
v -1.179317 -2.607913 0.300000
v -1.585654 -2.084994 0.300000
v -1.817432 -2.923141 -0.000000
v -2.423242 -2.093897 -0.000000
v -0.673444 3.658287 0.000000
v 0.000000 3.764148 0.000000
v -2.843745 -0.655851 0.000000
v -2.781993 0.782195 0.000000
v -0.605811 -3.899414 0.000000
v -1.211621 -3.552426 -0.000000
v -2.020332 3.540663 0.000000
v -1.346888 3.493614 0.000000
v -2.513786 3.696736 0.000000
v -0.000000 -4.211116 0.000000
v -2.715830 -1.445448 -0.000000
v -2.673192 2.208478 0.000000
v -2.680230 3.599848 0.000000
v -0.623549 2.107500 0.500000
v -0.631096 2.851081 0.500000
v -0.000000 -0.612915 0.500000
v -0.000000 0.752878 0.500000
v -0.607490 0.752878 0.500000
v -1.949829 0.752878 0.500000
v -1.214980 0.752878 0.500000
v -1.182863 -0.612915 0.500000
v -1.938041 -0.612915 0.500000
v -0.591431 -0.612915 0.500000
v -0.000000 -1.362840 0.500000
v -1.166804 -1.362840 0.500000
v -1.813885 -1.362840 0.500000
v -0.583402 -1.362840 0.500000
v -0.000000 2.107500 0.500000
v -1.247098 2.107500 0.500000
v -1.870647 2.107500 0.500000
v -0.000000 -3.227529 0.500000
v -1.120064 -2.466899 0.500000
v -0.577820 -2.892226 0.500000
v -1.840152 2.860178 0.500000
v -0.000000 3.060313 0.500000
v -1.263935 2.778304 0.500000
v -1.505985 -1.970253 0.500000
vt 0.507269 0.174369
vt 0.446491 0.112619
vt 0.453057 0.173478
vt 0.447247 0.389151
vt 0.510491 0.285064
vt 0.454967 0.282806
vt 0.345277 0.101638
vt 0.390754 0.128444
vt 0.397853 0.109358
vt 0.291653 0.106812
vt 0.340982 0.120868
vt 0.419427 0.436576
vt 0.433658 0.445806
vt 0.432622 0.128391
vt 0.491178 0.449635
vt 0.336625 0.555314
vt 0.293331 0.557838
vt 0.293396 0.575840
vt 0.431210 0.384233
vt 0.377556 0.526007
vt 0.331624 0.538249
vt 0.467947 0.494443
vt 0.421327 0.551146
vt 0.375460 0.590893
vt 0.333602 0.612707
vt 0.408107 0.490749
vt 0.293571 0.624623
vt 0.404112 0.060705
vt 0.291587 0.086939
vt 0.345231 0.048430
vt 0.291466 0.042958
vt 0.503268 0.084068
vt 0.463085 0.071381
vt 0.396622 0.478075
vt 0.369013 0.510855
vt 0.435668 0.181818
vt 0.437862 0.284425
vt 0.437216 0.566948
vt 0.522079 0.074758
vt 0.496314 0.075713
vt 0.468479 0.044829
vt 0.512317 0.059965
vt 0.387214 0.608896
vt 0.528802 0.397752
vt 0.505814 0.393911
vt 0.486627 0.506826
vt 0.408454 0.034499
vt 0.529382 0.173287
vt 0.291419 0.017837
vt 0.348928 0.023732
vt 0.512277 0.458126
vt 0.534098 0.285136
vt 0.293647 0.645735
vt 0.341186 0.632086
vt 0.377191 0.382054
vt 0.337483 0.281457
vt 0.334907 0.381116
vt 0.339732 0.179145
vt 0.382739 0.282353
vt 0.387803 0.180265
vt 0.291918 0.179015
vt 0.292308 0.281272
vt 0.292682 0.380908
vt 0.333535 0.434164
vt 0.292878 0.433922
vt 0.374367 0.435089
vt 0.136817 0.113775
vt 0.076572 0.176040
vt 0.130750 0.174698
vt 0.138200 0.390292
vt 0.074205 0.286707
vt 0.079683 0.395481
vt 0.192705 0.129147
vt 0.237968 0.102011
vt 0.185461 0.110102
vt 0.166362 0.437504
vt 0.152201 0.446836
vt 0.150819 0.129438
vt 0.094722 0.451083
vt 0.250019 0.555627
vt 0.154197 0.385256
vt 0.129688 0.284027
vt 0.254896 0.538527
vt 0.208879 0.526619
vt 0.118272 0.495714
vt 0.165295 0.552072
vt 0.211443 0.591485
vt 0.253456 0.612995
vt 0.178075 0.491587
vt 0.178874 0.061331
vt 0.237523 0.048793
vt 0.119821 0.072707
vt 0.079767 0.085784
vt 0.189466 0.478830
vt 0.217311 0.511406
vt 0.148203 0.182899
vt 0.947146 0.803996
vt 0.968533 0.756011
vt 0.567428 0.757851
vt 0.580607 0.378055
vt 0.568349 0.385266
vt 0.617099 0.389413
vt 0.634272 0.866668
vt 0.679221 0.912933
vt 0.858167 0.912112
vt 0.569340 0.488010
vt 0.724075 0.938351
vt 0.964147 0.486199
vt 0.915485 0.388044
vt 0.865770 0.391747
vt 0.589254 0.805637
vt 0.561788 0.593371
vt 0.557715 0.699586
vt 0.977711 0.697660
vt 0.813548 0.937941
vt 0.815983 0.379815
vt 0.766217 0.372225
vt 0.716522 0.380271
vt 0.666846 0.392659
vt 0.972664 0.591487
vt 0.902690 0.865437
vt 0.768917 0.961164
vt 0.964195 0.383450
vt 0.951871 0.376352
vt 0.149521 0.567986
vt 0.060888 0.076664
vt 0.114133 0.046212
vt 0.086633 0.077366
vt 0.070491 0.061791
vt 0.199820 0.609571
vt 0.056732 0.399489
vt 0.099685 0.508229
vt 0.174024 0.035136
vt 0.054468 0.175142
vt 0.073689 0.459725
vt 0.050611 0.286956
vt 0.247139 0.281794
vt 0.208190 0.382679
vt 0.250462 0.381429
vt 0.244105 0.179494
vt 0.196051 0.180971
vt 0.201896 0.283028
vt 0.242408 0.121212
vt 0.252225 0.434462
vt 0.211404 0.435687
vt 0.146802 0.285517
vt 0.246012 0.632428
vt 0.233782 0.023817
vn 0.0000 -0.0000 1.0000
vn 0.0929 0.8077 0.5822
vn 0.2556 0.7709 0.5835
vn 0.8678 -0.1437 0.4757
vn -0.1191 0.8382 0.5321
vn 0.3950 -0.6807 0.6169
vn 0.8892 -0.0077 0.4575
vn 0.4967 -0.6332 0.5936
vn 0.7599 -0.3852 0.5237
vn 0.6570 -0.5106 0.5546
vn 0.8884 0.0360 0.4577
vn 0.8845 0.0517 0.4637
vn 0.7204 -0.6935 0.0000
vn 1.0000 -0.0051 0.0000
vn -0.3016 0.9534 0.0000
vn 0.5031 0.8642 0.0000
vn 0.4970 -0.8677 0.0000
vn 0.9871 -0.1599 -0.0000
vn 0.8075 -0.5899 0.0000
vn -0.0697 0.9976 0.0000
vn 0.9971 0.0761 0.0000
vn 0.1553 0.9879 -0.0000
vn 0.2375 0.9714 0.0000
vn 0.9115 -0.4113 0.0000
vn 0.9991 0.0429 0.0000
vn 0.4575 -0.8892 0.0000
vn -0.0929 0.8077 0.5822
vn -0.2556 0.7709 0.5835
vn -0.8678 -0.1437 0.4757
vn 0.1191 0.8382 0.5321
vn -0.3950 -0.6807 0.6169
vn -0.8892 -0.0077 0.4575
vn -0.4967 -0.6332 0.5936
vn -0.7599 -0.3852 0.5237
vn -0.6570 -0.5106 0.5546
vn -0.8884 0.0360 0.4577
vn -0.8845 0.0517 0.4637
vn 0.0000 0.0000 -1.0000
vn -0.7204 -0.6935 0.0000
vn -1.0000 -0.0051 0.0000
vn 0.3016 0.9534 0.0000
vn -0.5031 0.8642 0.0000
vn -0.4970 -0.8677 0.0000
vn -0.9871 -0.1599 -0.0000
vn -0.8075 -0.5899 0.0000
vn 0.0697 0.9976 0.0000
vn -0.9971 0.0761 0.0000
vn -0.1553 0.9879 0.0000
vn -0.2375 0.9714 0.0000
vn -0.9115 -0.4113 0.0000
vn -0.9991 0.0429 0.0000
vn -0.4575 -0.8892 0.0000
usemtl Material
s off
f 13/1/1 19/2/1 14/3/1
f 12/4/1 3/5/1 8/6/1
f 2/7/2 53/8/2 20/9/2
f 2/7/3 118/10/3 38/11/3
f 12/4/4 46/12/4 16/13/4
f 20/9/5 52/14/5 19/2/5
f 15/15/1 12/4/1 16/13/1
f 21/16/6 114/17/6 79/18/6
f 8/6/7 43/19/7 12/4/7
f 22/20/8 51/21/8 21/16/8
f 8/6/1 13/1/1 14/3/1
f 1/22/1 16/13/1 6/23/1
f 4/24/1 21/16/1 10/25/1
f 6/23/1 16/13/1 23/26/1
f 10/25/1 79/18/1 57/27/1
f 19/2/1 5/28/1 20/9/1
f 76/29/1 9/30/1 58/31/1
f 2/7/1 5/28/1 9/30/1
f 18/32/1 7/33/1 19/2/1
f 16/13/9 54/34/9 23/26/9
f 23/26/10 50/35/10 22/20/10
f 14/3/11 52/14/11 49/36/11
f 8/6/12 49/36/12 40/37/12
f 4/24/13 24/38/13 6/23/13
f 13/1/14 36/39/14 18/32/14
f 17/40/15 31/41/15 7/33/15
f 18/32/16 33/42/16 17/40/16
f 10/25/17 30/43/17 4/24/17
f 15/15/18 27/44/18 11/45/18
f 6/23/19 25/46/19 1/22/19
f 7/33/20 32/47/20 5/28/20
f 3/5/21 35/48/21 13/1/21
f 9/30/22 85/49/22 58/31/22
f 5/28/23 26/50/23 9/30/23
f 1/22/24 34/51/24 15/15/24
f 11/45/25 28/52/25 3/5/25
f 10/25/26 93/53/26 29/54/26
f 42/55/1 39/56/1 44/57/1
f 37/58/1 53/8/1 38/11/1
f 43/19/1 41/59/1 42/55/1
f 49/36/1 53/8/1 48/60/1
f 111/61/1 38/11/1 118/10/1
f 44/57/1 100/62/1 99/63/1
f 47/64/1 99/63/1 107/65/1
f 46/12/1 42/55/1 45/66/1
f 45/66/1 44/57/1 47/64/1
f 39/56/1 111/61/1 100/62/1
f 41/59/1 49/36/1 48/60/1
f 41/59/1 37/58/1 39/56/1
f 46/12/1 45/66/1 54/34/1
f 50/35/1 47/64/1 51/21/1
f 51/21/1 107/65/1 114/17/1
f 45/66/1 50/35/1 54/34/1
f 75/67/1 69/68/1 70/69/1
f 68/70/1 59/71/1 67/72/1
f 119/73/27 56/74/27 77/75/27
f 56/74/28 118/10/28 76/29/28
f 109/76/29 68/70/29 72/77/29
f 117/78/30 77/75/30 75/67/30
f 68/70/1 71/79/1 72/77/1
f 114/17/31 78/80/31 79/18/31
f 105/81/32 64/82/32 68/70/32
f 116/83/33 80/84/33 78/80/33
f 64/82/1 69/68/1 59/71/1
f 72/77/1 55/85/1 62/86/1
f 78/80/1 60/87/1 66/88/1
f 62/86/1 81/89/1 72/77/1
f 79/18/1 66/88/1 57/27/1
f 61/90/1 75/67/1 77/75/1
f 76/29/1 65/91/1 56/74/1
f 56/74/1 61/90/1 77/75/1
f 63/92/1 74/93/1 75/67/1
f 120/94/34 72/77/34 81/89/34
f 115/95/35 81/89/35 80/84/35
f 70/69/36 117/78/36 75/67/36
f 64/82/37 113/96/37 70/69/37
f 83/97/38 94/98/38 34/99/38
f 33/100/38 36/101/38 31/102/38
f 24/103/38 30/104/38 89/105/38
f 36/101/38 35/106/38 31/102/38
f 29/107/38 89/105/38 30/104/38
f 95/108/38 90/109/38 91/110/38
f 25/111/38 24/103/38 83/97/38
f 34/99/38 25/111/38 83/97/38
f 28/112/38 27/113/38 86/114/38
f 88/115/38 89/105/38 29/107/38
f 84/116/38 85/117/38 26/118/38
f 32/119/38 28/112/38 26/118/38
f 35/106/38 28/112/38 32/119/38
f 94/98/38 86/114/38 27/113/38
f 84/116/38 26/118/38 87/120/38
f 87/120/38 95/108/38 91/110/38
f 82/121/38 83/97/38 24/103/38
f 29/107/38 93/122/38 88/115/38
f 31/102/38 35/106/38 32/119/38
f 94/98/38 27/113/38 34/99/38
f 86/114/38 87/120/38 28/112/38
f 28/112/38 87/120/38 26/118/38
f 95/108/38 96/123/38 90/109/38
f 96/123/38 92/124/38 90/109/38
f 82/125/39 60/87/39 62/86/39
f 96/126/40 69/68/40 74/93/40
f 90/127/41 73/128/41 63/92/41
f 92/129/42 74/93/42 73/128/42
f 89/130/43 66/88/43 60/87/43
f 86/131/44 71/79/44 67/72/44
f 83/132/45 62/86/45 55/85/45
f 91/133/46 63/92/46 61/90/46
f 95/134/47 59/71/47 69/68/47
f 85/49/48 65/91/48 58/31/48
f 65/91/49 91/133/49 61/90/49
f 94/135/50 55/85/50 71/79/50
f 87/136/51 67/72/51 59/71/51
f 66/88/52 93/53/52 57/27/52
f 101/137/1 104/138/1 106/139/1
f 97/140/1 119/73/1 112/141/1
f 103/142/1 105/81/1 104/138/1
f 119/73/1 113/96/1 112/141/1
f 111/61/1 98/143/1 97/140/1
f 100/62/1 106/139/1 99/63/1
f 99/63/1 110/144/1 107/65/1
f 104/138/1 109/76/1 108/145/1
f 106/139/1 108/145/1 110/144/1
f 111/61/1 101/137/1 100/62/1
f 103/142/1 113/96/1 102/146/1
f 97/140/1 103/142/1 101/137/1
f 109/76/1 120/94/1 108/145/1
f 115/95/1 110/144/1 108/145/1
f 116/83/1 107/65/1 110/144/1
f 108/145/1 120/94/1 115/95/1
f 6/23/1 22/20/1 4/24/1
f 80/84/1 62/86/1 60/87/1
f 89/105/38 82/121/38 24/103/38
f 91/110/38 84/116/38 87/120/38
f 13/1/1 18/32/1 19/2/1
f 12/4/1 11/45/1 3/5/1
f 2/7/2 38/11/2 53/8/2
f 2/7/3 76/29/3 118/10/3
f 12/4/4 43/19/4 46/12/4
f 20/9/5 53/8/5 52/14/5
f 15/15/1 11/45/1 12/4/1
f 21/16/6 51/21/6 114/17/6
f 8/6/7 40/37/7 43/19/7
f 22/20/8 50/35/8 51/21/8
f 8/6/1 3/5/1 13/1/1
f 1/22/1 15/15/1 16/13/1
f 4/24/1 22/20/1 21/16/1
f 10/25/1 21/16/1 79/18/1
f 19/2/1 7/33/1 5/28/1
f 76/29/1 2/7/1 9/30/1
f 2/7/1 20/9/1 5/28/1
f 18/32/1 17/40/1 7/33/1
f 16/13/9 46/12/9 54/34/9
f 23/26/10 54/34/10 50/35/10
f 14/3/11 19/2/11 52/14/11
f 8/6/12 14/3/12 49/36/12
f 4/24/13 30/43/13 24/38/13
f 13/1/14 35/48/14 36/39/14
f 17/40/15 33/42/15 31/41/15
f 18/32/16 36/39/16 33/42/16
f 10/25/17 29/54/17 30/43/17
f 15/15/18 34/51/18 27/44/18
f 6/23/19 24/38/19 25/46/19
f 7/33/20 31/41/20 32/47/20
f 3/5/21 28/52/21 35/48/21
f 9/30/22 26/50/22 85/49/22
f 5/28/23 32/47/23 26/50/23
f 1/22/24 25/46/24 34/51/24
f 11/45/25 27/44/25 28/52/25
f 10/25/26 57/27/26 93/53/26
f 42/55/1 41/59/1 39/56/1
f 37/58/1 48/60/1 53/8/1
f 43/19/1 40/37/1 41/59/1
f 49/36/1 52/14/1 53/8/1
f 111/61/1 37/58/1 38/11/1
f 44/57/1 39/56/1 100/62/1
f 47/64/1 44/57/1 99/63/1
f 46/12/1 43/19/1 42/55/1
f 45/66/1 42/55/1 44/57/1
f 39/56/1 37/58/1 111/61/1
f 41/59/1 40/37/1 49/36/1
f 41/59/1 48/60/1 37/58/1
f 50/35/1 45/66/1 47/64/1
f 51/21/1 47/64/1 107/65/1
f 75/67/1 74/93/1 69/68/1
f 68/70/1 64/82/1 59/71/1
f 119/73/27 98/143/27 56/74/27
f 56/74/28 98/143/28 118/10/28
f 109/76/29 105/81/29 68/70/29
f 117/78/30 119/73/30 77/75/30
f 68/70/1 67/72/1 71/79/1
f 114/17/31 116/83/31 78/80/31
f 105/81/32 102/146/32 64/82/32
f 116/83/33 115/95/33 80/84/33
f 64/82/1 70/69/1 69/68/1
f 72/77/1 71/79/1 55/85/1
f 78/80/1 80/84/1 60/87/1
f 79/18/1 78/80/1 66/88/1
f 61/90/1 63/92/1 75/67/1
f 76/29/1 58/31/1 65/91/1
f 56/74/1 65/91/1 61/90/1
f 63/92/1 73/128/1 74/93/1
f 120/94/34 109/76/34 72/77/34
f 115/95/35 120/94/35 81/89/35
f 70/69/36 113/96/36 117/78/36
f 64/82/37 102/146/37 113/96/37
f 82/125/39 89/130/39 60/87/39
f 96/126/40 95/134/40 69/68/40
f 90/127/41 92/129/41 73/128/41
f 92/129/42 96/126/42 74/93/42
f 89/130/43 88/147/43 66/88/43
f 86/131/44 94/135/44 71/79/44
f 83/132/45 82/125/45 62/86/45
f 91/133/46 90/127/46 63/92/46
f 95/134/47 87/136/47 59/71/47
f 85/49/48 84/148/48 65/91/48
f 65/91/49 84/148/49 91/133/49
f 94/135/50 83/132/50 55/85/50
f 87/136/51 86/131/51 67/72/51
f 66/88/52 88/147/52 93/53/52
f 101/137/1 103/142/1 104/138/1
f 97/140/1 98/143/1 119/73/1
f 103/142/1 102/146/1 105/81/1
f 119/73/1 117/78/1 113/96/1
f 111/61/1 118/10/1 98/143/1
f 100/62/1 101/137/1 106/139/1
f 99/63/1 106/139/1 110/144/1
f 104/138/1 105/81/1 109/76/1
f 106/139/1 104/138/1 108/145/1
f 111/61/1 97/140/1 101/137/1
f 103/142/1 112/141/1 113/96/1
f 97/140/1 112/141/1 103/142/1
f 115/95/1 116/83/1 110/144/1
f 116/83/1 114/17/1 107/65/1
f 6/23/1 23/26/1 22/20/1
f 80/84/1 81/89/1 62/86/1
