# WaveFront *.obj file (generated by Cinema 4D)

v -2.506447 -2.840640 0.668098
v -2.506447 -2.840640 -0.000098
v -2.506447 1.503868 0.668098
v -2.506447 1.503868 -0.000098
v -2.172254 1.503868 0.668098
v -2.172254 1.503868 -0.000098
v -2.172254 2.172254 0.668098
v -2.172254 2.172254 -0.000098
v -1.838061 2.172254 0.668098
v -1.838061 2.172254 -0.000098
v -1.838061 2.506447 0.668098
v -1.838061 2.506447 -0.000098
v -1.503868 -0.501289 0.668098
v -1.503868 -0.501289 0.584793
v -1.503868 0.167096 0.668098
v -1.503868 0.167096 0.584793
v -1.503868 0.501289 0.668098
v -1.503868 0.501289 0.584793
v -1.503868 0.835483 0.668098
v -1.503868 0.835483 0.584793
v -1.169675 0.167096 0.668098
v -1.169675 0.167096 0.584793
v -1.169675 0.501289 0.668098
v -1.169675 0.501289 0.584793
v -1.169675 2.506447 0.668098
v -1.169675 2.506447 -0.000098
v -1.169675 2.840640 0.668098
v -1.169675 2.840640 -0.000098
v -0.835483 -0.501289 0.668098
v -0.835483 -0.501289 0.584793
v -0.835483 0.167096 0.668098
v -0.835483 0.167096 0.584793
v -0.835483 0.501289 0.668098
v -0.835483 0.501289 0.584793
v -0.835483 1.169675 0.668098
v -0.835483 1.169675 0.584793
v 0.167096 -0.167096 0.668098
v 0.167096 -0.167096 0.584793
v 0.167096 0.835483 0.668098
v 0.167096 0.835483 0.584793
v 0.501289 -0.501289 0.668098
v 0.501289 -0.501289 0.584793
v 0.501289 -0.167096 0.668098
v 0.501289 -0.167096 0.584793
v 0.501289 0.835483 0.668098
v 0.501289 0.835483 0.584793
v 0.501289 1.169675 0.668098
v 0.501289 1.169675 0.584793
v 1.169675 -0.501289 0.668098
v 1.169675 -0.501289 0.584793
v 1.169675 0.167096 0.668098
v 1.169675 0.167096 0.584793
v 1.169675 0.501289 0.668098
v 1.169675 0.501289 0.584793
v 1.169675 0.835483 0.668098
v 1.169675 0.835483 0.584793
v 1.838061 0.167096 0.668098
v 1.838061 0.167096 0.584793
v 1.838061 1.169675 0.668098
v 1.838061 1.169675 0.584793
v -1.838061 -0.501289 0.668098
v -1.838061 1.169675 0.584793
v -1.838061 1.169675 0.668098
v -1.838061 -0.501289 0.584793
v -1.169675 -0.501289 0.668098
v -1.169675 -0.501289 0.584793
v 2.506447 1.503868 -0.000098
v 2.506447 1.503868 0.668098
v 2.506447 -2.840640 -0.000098
v 2.506447 -2.840640 0.668098
v -1.169675 0.835483 0.668098
v -1.169675 0.835483 0.584793
v -0.501289 -0.501289 0.668098
v -0.501289 -0.501289 0.584793
v -0.501289 -0.167096 0.668098
v -0.501289 -0.167096 0.584793
v -0.501289 0.835483 0.668098
v -0.501289 0.835483 0.584793
v -0.501289 1.169675 0.668098
v -0.501289 1.169675 0.584793
v -0.167096 -0.167096 0.668098
v -0.167096 -0.167096 0.584793
v -0.167096 0.835483 0.668098
v -0.167096 0.835483 0.584793
v 0.835483 -0.501289 0.668098
v 0.835483 -0.501289 0.584793
v 0.835483 1.169675 0.668098
v 0.835483 1.169675 0.584793
v 1.169675 2.506447 0.668098
v 1.169675 2.506447 -0.000098
v 1.169675 2.840640 0.668098
v 1.169675 2.840640 -0.000098
v 1.503868 0.501289 0.668098
v 1.503868 0.501289 0.584793
v 1.503868 0.835483 0.668098
v 1.503868 0.835483 0.584793
v 1.838061 2.172254 0.668098
v 1.838061 2.172254 -0.000098
v 1.838061 2.506447 0.668098
v 1.838061 2.506447 -0.000098
v 2.172254 1.503868 0.668098
v 2.172254 1.503868 -0.000098
v 2.172254 2.172254 0.668098
v 2.172254 2.172254 -0.000098
# 104 vertices

vn 0.000000 0.000000 1.000000
vn 0.000000 0.000000 -1.000000
vn 0.000000 1.000000 0.000000
vn -1.000000 0.000000 0.000000
vn 0.000000 -1.000000 0.000000
vn 1.000000 0.000000 0.000000
# 6 normals

vt 0.083333 1.000000 0.000000
vt 0.083333 0.350000 0.000000
vt 0.111111 0.350000 0.000000
vt 0.000000 0.000000 0.000000
vt 0.250000 0.650000 0.000000
vt 0.305556 0.600000 0.000000
vt 0.333333 0.650000 0.000000
vt 0.388889 0.550000 0.000000
vt 0.388889 0.650000 0.000000
vt 0.361111 0.650000 0.000000
vt 0.166667 0.550000 0.000000
vt 0.194444 0.500000 0.000000
vt 0.194444 0.550000 0.000000
vt 0.944444 0.250000 0.000000
vt 0.638889 0.250000 0.000000
vt 0.638889 0.200000 0.000000
vt 0.388889 0.050001 0.000000
vt 0.361111 0.050001 0.000000
vt 0.361111 0.000000 0.000000
vt 0.222222 0.550000 0.000000
vt 0.222222 0.650000 0.000000
vt 0.388889 0.500000 0.000000
vt 0.388889 0.450000 0.000000
vt 0.416667 0.450000 0.000000
vt 0.166667 0.500000 0.000000
vt 0.166667 0.450000 0.000000
vt 0.194444 0.450000 0.000000
vt 0.055556 1.000000 0.000000
vt 0.000000 1.000000 0.000000
vt 0.000000 0.350000 0.000000
vt 0.111111 0.050001 0.000000
vt 0.111111 0.150000 0.000000
vt 0.083333 0.150000 0.000000
vt 0.055556 0.350000 0.000000
vt 0.000000 0.250000 0.000000
vt 0.222222 0.500000 0.000000
vt 0.055556 0.250000 0.000000
vt 0.000000 0.200000 0.000000
vt 0.416667 0.000000 0.000000
vt 0.416667 0.050001 0.000000
vt 0.083333 0.650000 0.000000
vt 0.055556 0.650000 0.000000
vt 0.055556 0.550000 0.000000
vt 0.333333 0.050001 0.000000
vt 0.250000 0.050001 0.000000
vt 0.250000 0.000000 0.000000
vt 0.083333 0.500000 0.000000
vt 0.055556 0.500000 0.000000
vt 0.055556 0.450000 0.000000
vt 0.333333 0.000000 0.000000
vt 0.305556 0.050001 0.000000
vt 0.083333 0.550000 0.000000
vt 0.222222 0.050001 0.000000
vt 0.194444 0.050001 0.000000
vt 0.194444 0.000000 0.000000
vt 0.055556 0.200000 0.000000
vt 0.000000 0.150000 0.000000
vt 0.277778 0.000000 0.000000
vt 0.277778 0.050001 0.000000
vt 0.166667 0.050001 0.000000
vt 0.138889 0.050001 0.000000
vt 0.138889 0.000000 0.000000
vt 0.055556 0.399999 0.000000
vt 0.083333 0.600000 0.000000
vt 0.055556 0.600000 0.000000
vt 0.861111 0.000000 0.000000
vt 0.861111 0.050001 0.000000
vt 0.777778 0.050001 0.000000
vt 0.222222 0.000000 0.000000
vt 0.083333 0.450000 0.000000
vt 0.611111 0.000000 0.000000
vt 0.638889 0.000000 0.000000
vt 0.638889 0.050001 0.000000
vt 0.444444 0.000000 0.000000
vt 0.444444 0.050001 0.000000
vt 0.750000 0.000000 0.000000
vt 0.750000 0.050001 0.000000
vt 0.666667 0.050001 0.000000
vt 0.527778 0.650000 0.000000
vt 0.500000 0.650000 0.000000
vt 0.500000 0.399999 0.000000
vt 0.388889 0.150000 0.000000
vt 0.194444 0.150000 0.000000
vt 0.500000 0.550000 0.000000
vt 0.722222 0.000000 0.000000
vt 0.527778 0.500000 0.000000
vt 0.500000 0.500000 0.000000
vt 0.500000 0.450000 0.000000
vt 0.444444 0.150000 0.000000
vt 0.500000 0.600000 0.000000
vt 0.555556 0.050001 0.000000
vt 0.527778 0.450000 0.000000
vt 0.138889 0.150000 0.000000
vt 0.527778 0.600000 0.000000
vt 0.666667 0.000000 0.000000
vt 0.694444 0.000000 0.000000
vt 0.694444 0.050001 0.000000
vt 0.472222 0.050001 0.000000
vt 0.472222 0.150000 0.000000
vt 0.583333 0.200000 0.000000
vt 0.527778 0.200000 0.000000
vt 0.527778 0.150000 0.000000
vt 0.833333 0.000000 0.000000
vt 0.833333 0.050001 0.000000
vt 0.805556 0.050001 0.000000
vt 0.583333 0.250000 0.000000
vt 0.527778 0.250000 0.000000
vt 0.500000 0.050001 0.000000
vt 0.916667 0.050001 0.000000
vt 0.916667 0.150000 0.000000
vt 0.583333 0.350000 0.000000
vt 0.527778 0.350000 0.000000
vt 0.500000 0.150000 0.000000
vt 0.583333 1.000000 0.000000
vt 0.527778 1.000000 0.000000
vt 0.611111 0.050001 0.000000
vt 0.583333 0.050001 0.000000
vt 0.388889 0.000000 0.000000
vt 0.194444 0.650000 0.000000
vt 0.416667 0.500000 0.000000
vt 0.083333 0.050001 0.000000
vt 0.222222 0.399999 0.000000
vt 0.305556 0.000000 0.000000
vt 0.055556 0.150000 0.000000
vt 0.166667 0.000000 0.000000
vt 0.083333 0.399999 0.000000
vt 0.777778 0.000000 0.000000
vt 0.527778 0.399999 0.000000
vt 0.527778 0.550000 0.000000
vt 0.722222 0.050001 0.000000
vt 0.555556 0.000000 0.000000
vt 0.583333 0.150000 0.000000
vt 0.805556 0.000000 0.000000
vt 0.583333 0.000000 0.000000
vt 0.138889 0.250000 0.000000
vt 0.138889 0.399999 0.000000
vt 0.138889 0.200000 0.000000
vt 0.194444 0.200000 0.000000
vt 0.388889 0.200000 0.000000
vt 0.444444 0.200000 0.000000
vt 0.444444 0.250000 0.000000
vt 0.472222 0.350000 0.000000
vt 0.444444 0.399999 0.000000
vt 0.500000 1.000000 0.000000
vt 0.444444 0.550000 0.000000
vt 0.250000 0.600000 0.000000
vt 0.250000 0.450000 0.000000
vt 0.138889 0.650000 0.000000
vt 0.166667 0.650000 0.000000
vt 0.250000 0.399999 0.000000
vt 0.333333 0.399999 0.000000
vt 0.361111 0.399999 0.000000
vt 0.333333 0.450000 0.000000
vt 0.333333 0.600000 0.000000
vt 0.277778 0.450000 0.000000
vt 0.277778 0.600000 0.000000
vt 0.305556 0.450000 0.000000
vt 0.888889 0.200000 0.000000
vt 0.694444 0.200000 0.000000
vt 0.694444 0.150000 0.000000
vt 0.972222 0.350000 0.000000
vt 1.000000 1.000000 0.000000
vt 0.611111 0.350000 0.000000
vt 0.611111 0.250000 0.000000
vt 0.111111 0.250000 0.000000
vt 0.472222 0.250000 0.000000
vt 0.500000 0.350000 0.000000
vt 0.888889 0.150000 0.000000
vt 0.944444 0.200000 0.000000
vt 0.972222 0.250000 0.000000
vt 1.000000 0.350000 0.000000
# 171 texture coordinates

o tombstone
usemtl tombstone
f 5/3/1 3/2/1 1/1/1
f 42/7/1 38/6/1 74/5/1
f 86/10/1 50/9/1 52/8/1
f 22/13/1 24/12/1 16/11/1
f 100/16/2 98/15/2 10/14/2
f 86/19/3 85/18/3 49/17/3
f 30/21/1 32/20/1 22/13/1
f 95/24/1 55/23/1 53/22/1
f 71/27/1 19/26/1 17/25/1
f 31/20/1 23/12/1 21/13/1
f 4/30/4 2/29/4 1/28/4
f 3/33/3 5/32/3 6/31/3
f 8/35/4 6/30/4 5/34/4
f 72/27/1 24/12/1 34/36/1
f 12/38/4 10/35/4 9/37/4
f 55/17/3 95/40/3 96/39/3
f 16/43/4 14/42/4 13/41/4
f 74/46/3 73/45/3 41/44/3
f 20/49/4 18/48/4 17/47/4
f 39/51/3 45/44/3 46/50/3
f 24/48/4 22/43/4 21/52/4
f 66/55/3 65/54/3 29/53/3
f 28/57/4 26/38/4 25/56/4
f 77/45/3 83/59/3 84/58/3
f 32/43/4 30/42/4 29/41/4
f 64/62/3 61/61/3 13/60/3
f 36/63/4 34/48/4 33/47/4
f 19/60/3 71/54/3 72/55/3
f 40/49/4 38/65/4 37/64/4
f 88/68/5 60/67/5 59/66/5
f 44/65/4 42/42/4 41/41/4
f 23/54/3 33/53/3 34/69/3
f 48/63/4 46/49/4 45/70/4
f 32/73/5 31/72/5 21/71/5
f 52/43/4 50/42/4 49/41/4
f 51/17/3 57/75/3 58/74/3
f 56/49/4 54/48/4 53/47/4
f 80/78/5 48/77/5 47/76/5
f 60/63/4 58/43/4 57/52/4
f 15/60/3 21/54/3 22/55/3
f 63/81/6 61/80/6 64/79/6
f 27/83/3 91/82/3 92/17/3
f 21/84/6 65/80/6 66/79/6
f 44/77/5 43/76/5 37/85/5
f 71/88/6 23/87/6 24/86/6
f 89/82/3 99/89/3 100/75/3
f 75/90/6 73/80/6 74/79/6
f 62/91/5 36/73/5 35/72/5
f 79/81/6 77/88/6 78/92/6
f 11/93/3 25/83/3 26/54/3
f 83/88/6 81/90/6 82/94/6
f 82/97/5 81/96/5 75/95/5
f 87/81/6 85/80/6 86/79/6
f 97/89/3 103/99/3 104/98/3
f 91/102/6 89/101/6 90/100/6
f 54/105/5 94/104/5 93/103/5
f 95/88/6 93/87/6 94/86/6
f 7/32/3 9/93/3 10/61/3
f 99/101/6 97/107/6 98/106/6
f 69/110/5 70/109/5 1/108/5
f 103/107/6 101/112/6 102/111/6
f 101/99/3 68/113/3 67/108/3
f 68/112/6 70/115/6 69/114/6
f 18/117/5 24/116/5 23/71/5
f 50/118/3 86/19/3 49/17/3
f 66/119/1 30/21/1 22/13/1
f 93/120/1 95/24/1 53/22/1
f 23/12/1 71/27/1 17/25/1
f 3/34/4 4/30/4 1/28/4
f 4/121/3 3/33/3 6/31/3
f 7/37/4 8/35/4 5/34/4
f 36/122/1 72/27/1 34/36/1
f 11/56/4 12/38/4 9/37/4
f 56/118/3 55/17/3 96/39/3
f 15/52/4 16/43/4 13/41/4
f 42/50/3 74/46/3 41/44/3
f 19/70/4 20/49/4 17/47/4
f 40/123/3 39/51/3 46/50/3
f 23/47/4 24/48/4 21/52/4
f 30/69/3 66/55/3 29/53/3
f 27/124/4 28/57/4 25/56/4
f 78/46/3 77/45/3 84/58/3
f 31/52/4 32/43/4 29/41/4
f 14/125/3 64/62/3 13/60/3
f 35/126/4 36/63/4 33/47/4
f 20/125/3 19/60/3 72/55/3
f 39/70/4 40/49/4 37/64/4
f 87/127/5 88/68/5 59/66/5
f 43/64/4 44/65/4 41/41/4
f 24/55/3 23/54/3 34/69/3
f 47/126/4 48/63/4 45/70/4
f 22/116/5 32/73/5 21/71/5
f 51/52/4 52/43/4 49/41/4
f 52/118/3 51/17/3 58/74/3
f 55/70/4 56/49/4 53/47/4
f 79/95/5 80/78/5 47/76/5
f 59/126/4 60/63/4 57/52/4
f 16/125/3 15/60/3 22/55/3
f 62/128/6 63/81/6 64/79/6
f 28/54/3 27/83/3 92/17/3
f 22/129/6 21/84/6 66/79/6
f 38/130/5 44/77/5 37/85/5
f 72/92/6 71/88/6 24/86/6
f 90/17/3 89/82/3 100/75/3
f 76/94/6 75/90/6 74/79/6
f 63/131/5 62/91/5 35/72/5
f 80/128/6 79/81/6 78/92/6
f 12/61/3 11/93/3 26/54/3
f 84/92/6 83/88/6 82/94/6
f 76/78/5 82/97/5 75/95/5
f 88/128/6 87/81/6 86/79/6
f 98/75/3 97/89/3 104/98/3
f 92/132/6 91/102/6 90/100/6
f 53/133/5 54/105/5 93/103/5
f 96/92/6 95/88/6 94/86/6
f 8/31/3 7/32/3 10/61/3
f 100/100/6 99/101/6 98/106/6
f 2/113/5 69/110/5 1/108/5
f 104/106/6 103/107/6 102/111/6
f 102/98/3 101/99/3 67/108/3
f 67/111/6 68/112/6 69/114/6
f 17/134/5 18/117/5 23/71/5
f 5/3/1 63/136/1 9/135/1
f 25/138/1 11/137/1 9/135/1
f 25/138/1 89/139/1 91/82/1
f 97/141/1 99/140/1 89/139/1
f 97/141/1 59/143/1 101/142/1
f 101/142/1 57/145/1 70/144/1
f 70/144/1 41/7/1 73/5/1
f 29/21/1 65/119/1 1/1/1
f 29/21/1 73/5/1 75/146/1
f 33/36/1 23/12/1 31/20/1
f 35/122/1 33/36/1 77/147/1
f 25/138/1 9/135/1 63/136/1
f 5/3/1 1/1/1 61/148/1
f 13/149/1 61/148/1 1/1/1
f 15/11/1 13/149/1 65/119/1
f 89/139/1 25/138/1 79/150/1
f 87/152/1 89/139/1 47/151/1
f 37/6/1 43/154/1 45/153/1
f 41/7/1 70/144/1 85/10/1
f 83/155/1 77/147/1 75/146/1
f 70/144/1 49/9/1 85/10/1
f 49/9/1 70/144/1 57/145/1
f 101/142/1 59/143/1 57/145/1
f 97/141/1 89/139/1 87/152/1
f 43/154/1 85/10/1 87/152/1
f 33/36/1 31/20/1 75/146/1
f 35/122/1 79/150/1 25/138/1
f 65/119/1 13/149/1 1/1/1
f 73/5/1 29/21/1 1/1/1
f 82/156/1 76/146/1 74/5/1
f 38/6/1 84/155/1 82/156/1
f 84/155/1 80/150/1 78/147/1
f 48/151/1 80/150/1 46/153/1
f 46/153/1 80/150/1 40/157/1
f 40/157/1 84/155/1 38/6/1
f 44/154/1 38/6/1 42/7/1
f 40/157/1 80/150/1 84/155/1
f 38/6/1 82/156/1 74/5/1
f 86/10/1 52/8/1 54/22/1
f 96/24/1 60/143/1 88/152/1
f 94/120/1 58/145/1 60/143/1
f 94/120/1 54/22/1 52/8/1
f 54/22/1 56/23/1 88/152/1
f 16/11/1 64/148/1 14/149/1
f 18/25/1 62/136/1 64/148/1
f 62/136/1 20/26/1 36/122/1
f 72/27/1 36/122/1 20/26/1
f 20/26/1 62/136/1 18/25/1
f 24/12/1 18/25/1 16/11/1
f 92/160/2 90/159/2 26/158/2
f 26/158/2 90/159/2 10/14/2
f 10/14/2 98/15/2 6/161/2
f 6/161/2 102/163/2 2/162/2
f 67/111/2 69/114/2 2/162/2
f 102/163/2 67/111/2 2/162/2
f 104/164/2 102/163/2 6/161/2
f 7/165/1 5/3/1 9/135/1
f 27/83/1 25/138/1 91/82/1
f 103/166/1 97/141/1 101/142/1
f 68/167/1 101/142/1 70/144/1
f 1/1/1 70/144/1 73/5/1
f 31/20/1 29/21/1 75/146/1
f 79/150/1 35/122/1 77/147/1
f 35/122/1 25/138/1 63/136/1
f 63/136/1 5/3/1 61/148/1
f 21/13/1 15/11/1 65/119/1
f 47/151/1 89/139/1 79/150/1
f 45/153/1 87/152/1 47/151/1
f 39/157/1 37/6/1 45/153/1
f 43/154/1 41/7/1 85/10/1
f 81/156/1 83/155/1 75/146/1
f 51/8/1 49/9/1 57/145/1
f 59/143/1 97/141/1 87/152/1
f 45/153/1 43/154/1 87/152/1
f 77/147/1 33/36/1 75/146/1
f 88/152/1 86/10/1 54/22/1
f 56/23/1 96/24/1 88/152/1
f 96/24/1 94/120/1 60/143/1
f 58/145/1 94/120/1 52/8/1
f 16/11/1 18/25/1 64/148/1
f 28/168/2 92/160/2 26/158/2
f 12/169/2 26/158/2 10/14/2
f 8/170/2 10/14/2 6/161/2
f 4/171/2 6/161/2 2/162/2
f 98/15/2 104/164/2 6/161/2
f 90/159/2 100/16/2 10/14/2

